<svg width="200" height="1521" viewBox="0 0 200 1521" fill="none" xmlns="http://www.w3.org/2000/svg">
<path d="M0.000819304 1426.31C0.000823357 1407.77 3.93561 1391.39 11.8052 1377.19C19.7652 1363.08 31.2529 1352 46.2684 1343.95C61.2839 1335.9 79.1487 1331.87 99.8628 1331.87C120.848 1331.87 138.758 1335.9 153.593 1343.95C168.518 1352 179.96 1363.08 187.92 1377.19C195.971 1391.39 199.996 1407.77 199.996 1426.31C199.996 1444.85 195.971 1461.18 187.92 1475.29C179.96 1489.49 168.518 1500.62 153.593 1508.67C138.758 1516.72 120.848 1520.74 99.8627 1520.74C79.1486 1520.74 61.2838 1516.72 46.2684 1508.67C31.2529 1500.62 19.7651 1489.49 11.8051 1475.29C3.93559 1461.18 0.000815252 1444.85 0.000819304 1426.31ZM33.2429 1424.95L33.2429 1427.67C33.2429 1445.12 39.1677 1458.74 51.0172 1468.51C62.8668 1478.37 79.1486 1483.3 99.8628 1483.3C120.848 1483.3 137.221 1478.37 148.98 1468.51C160.739 1458.74 166.618 1445.12 166.618 1427.67L166.618 1424.95C166.618 1407.5 160.739 1393.84 148.98 1383.98C137.221 1374.21 120.848 1369.32 99.8628 1369.32C79.1487 1369.32 62.8668 1374.21 51.0173 1383.98C39.1677 1393.84 33.2429 1407.5 33.2429 1424.95Z" fill="black"/>
<path d="M2.71808 1269.51L2.71809 1232.06L163.773 1232.06L163.773 1164.77L197.15 1164.77L197.15 1337.08L163.773 1337.08L163.773 1269.51L2.71808 1269.51Z" fill="black"/>
<path d="M0.006682 1082.52C0.0066859 1064.7 2.85601 1050.05 8.55466 1038.56C14.2533 1027.07 22.2133 1018.44 32.4347 1012.65C42.7465 1006.95 54.5961 1003.83 67.9834 1003.29L67.9834 1040.73C58.3047 1041.55 50.0733 1045.48 43.2892 1052.54C36.5956 1059.68 33.2488 1070.58 33.2488 1085.24L33.2488 1088.09C33.2488 1098.4 35.6006 1106.22 40.3042 1111.56C45.0079 1116.99 50.5256 1119.7 56.8574 1119.7C62.3752 1119.7 66.8527 1118.21 70.2899 1115.22C73.7272 1112.24 76.3956 1106.4 78.2952 1097.72L85.4863 1062.99C89.195 1045.62 95.8434 1032.95 105.432 1024.99C115.11 1017.03 127.186 1013.05 141.659 1013.05C151.428 1013.05 160.745 1015.86 169.609 1021.47C178.564 1027.17 185.846 1035.44 191.454 1046.3C197.153 1057.24 200.002 1070.67 200.002 1086.59C200.002 1102.33 197.198 1115.68 191.59 1126.62C186.072 1137.57 178.519 1145.89 168.931 1151.59C159.433 1157.37 148.488 1160.27 136.096 1160.27L136.096 1122.82C146.227 1122.01 153.825 1118.25 158.89 1111.56C164.046 1104.96 166.624 1096.63 166.624 1086.59L166.624 1083.88C166.624 1073.48 164.227 1065.29 159.433 1059.32C154.729 1053.44 149.257 1050.5 143.016 1050.5C136.684 1050.5 131.844 1052.36 128.498 1056.07C125.151 1059.77 122.663 1065.79 121.035 1074.11L115.201 1103.28C111.854 1119.93 105.703 1133.04 96.7479 1142.63C87.8834 1152.31 75.4911 1157.15 59.5711 1157.15C48.4451 1157.15 38.4047 1154.3 29.4497 1148.6C20.4947 1142.9 13.3487 1134.49 8.01191 1123.36C2.67509 1112.24 0.00667848 1098.62 0.006682 1082.52Z" fill="black"/>
<path d="M2.72003 998.189L2.72006 848.125L197.152 848.125L197.152 995.476L163.775 995.476L163.775 885.709L119.135 885.709L119.135 978.787L85.7574 978.787L85.7574 885.709L35.9621 885.709L35.9621 998.189L2.72003 998.189Z" fill="black"/>
<path d="M2.72005 728.377L2.72006 690.793L197.152 690.793L197.152 832.581L163.775 832.581L163.775 728.377L113.844 728.377L113.844 818.741L80.4658 818.741L80.4658 728.377L2.72005 728.377Z" fill="black"/>
<path d="M2.72786 660.209L2.72787 622.625L197.16 622.625L197.16 660.209L2.72786 660.209Z" fill="black"/>
<path d="M54.5584 553.474L197.16 553.474L197.16 591.058L2.72784 591.058L2.72785 542.348L145.737 465.959L2.72786 465.959L2.72787 428.375L197.16 428.375L197.16 477.085L54.5584 553.474Z" fill="black"/>
<path d="M2.72783 417.848L2.72784 378.229L48.4527 360.726L48.4527 278.909L2.72786 261.406L2.72787 222.059L197.16 298.99L197.16 342.816L2.72783 417.848ZM155.506 319.75L81.8304 291.799L81.8304 347.836L155.506 319.75Z" fill="black"/>
<path d="M44.3822 107.324L197.16 154.542L197.16 212.614L2.72783 212.614L2.72783 175.979L156.048 175.98L2.72784 127.541L2.72785 86.4294L156.32 36.7698L2.72786 36.7698L2.72787 -4.24945e-05L197.16 0L197.16 58.4789L44.3822 107.324Z" fill="black"/>
</svg>
