<svg width="64" height="64" viewBox="0 0 64 64" fill="none" xmlns="http://www.w3.org/2000/svg">
<g clip-path="url(#clip0_5277_7869)">
<rect width="64" height="64" fill="#20FE06"/>
<path d="M15.1274 41L13.5527 36.874H6.2041L4.62939 41H1.07715L7.99854 23.4951H11.9536L18.7041 41H15.1274ZM7.33936 33.8711H12.4053L9.86621 27.2305L7.33936 33.8711ZM19.1509 41V37.3745H22.7764V41H19.1509ZM37.188 41L35.6133 36.874H28.2646L26.6899 41H23.1377L30.0591 23.4951H34.0142L40.7646 41H37.188ZM29.3999 33.8711H34.4658L31.9268 27.2305L29.3999 33.8711ZM41.2114 41V37.3745H44.8369V41H41.2114ZM59.2485 41L57.6738 36.874H50.3252L48.7505 41H45.1982L52.1196 23.4951H56.0747L62.8252 41H59.2485ZM51.4604 33.8711H56.5264L53.9873 27.2305L51.4604 33.8711Z" fill="black"/>
</g>
<defs>
<clipPath id="clip0_5277_7869">
<rect width="64" height="64" fill="white"/>
</clipPath>
</defs>
</svg>
