<svg width="1888" height="496" viewBox="0 0 1888 496" fill="none" xmlns="http://www.w3.org/2000/svg">
<path d="M1887.6 495.138H1786.71L1742.13 378.696H1533.78L1489.21 495.138H1389.01L1584.92 0H1696.53L1887.6 495.138ZM1637.79 106.076L1566.61 293.696H1709.31L1637.79 106.076Z" fill="black"/>
<path d="M1343.75 495.135H1241.12V392.859H1343.75V495.135Z" fill="black"/>
<path d="M1193.1 495.138H1092.2L1047.63 378.696H839.279L794.706 495.138H694.504L890.417 0H1002.02L1193.1 495.138ZM943.282 106.076L872.104 293.696H1014.81L943.282 106.076Z" fill="black"/>
<path d="M649.242 495.135H546.621V392.859H649.242V495.135Z" fill="black"/>
<path d="M498.593 495.138H397.699L353.127 378.696H144.775L100.202 495.138H0L195.913 0H307.517L498.593 495.138ZM248.778 106.076L177.6 293.696H320.302L248.778 106.076Z" fill="black"/>
</svg>
